#tb 0: 1/1000
0,          0,          0,        0,   522720, 0x1ccad503
0,         33,         33,        0,   522720, 0xd266d6e8
0,         67,         67,        0,   522720, 0x535473b3
0,        100,        100,        0,   522720, 0xf8b53c53
0,        133,        133,        0,   522720, 0x4e4cc04b
0,        167,        167,        0,   522720, 0x20ea3515
0,        200,        200,        0,   522720, 0xb9c67e30
0,        233,        233,        0,   522720, 0x03d2e35a
0,        267,        267,        0,   522720, 0xae2e7896
0,        300,        300,        0,   522720, 0x6da37f41
0,        400,        400,        0,   522720, 0x7caf4954
